# xmcd
#
# Track frame offsets:
# 150
# 12542
# 31273
# 45546
# 56315
# 69644
# 81632
# 93923
# 108742
# 120535
# 136354
# 150923
# 171197
# 189343
# 198353
# 212103
# 225972
# 239217
# 262329
# 276797
# 291905
# 307766
# 328423
#
# Disc length: 4639 seconds
#
#
# Revision: 0
# Processed by: cddbd v1.5.2PL0 Copyright (c) Steve Scherf et al.
# Submitted via: FreeRIP 2.951 
#
DISCID=51121d17
DTITLE=Willie Nelson - The Complete Atlantic Sessions- Disk One
DYEAR=2006
DGENRE=Country
TTITLE0=Shotgun Willie
TTITLE1=Whiskey River
TTITLE2=Sad Songs and Waltzes
TTITLE3=Local Memory
TTITLE4=Slow Down old World
TTITLE5=Stay All Night (Stay a little longer)
TTITLE6=Devil in a Sleeping Bag
TTITLE7=She's Not for You
TTITLE8=Bubbles in my Beer
TTITLE9=You Look Like The Devil
TTITLE10=So Much To Do
TTITLE11=A Song For You
TTITLE12=I Gotta Have Something I ain't Got (outtake)
TTITLE13=I'm So Ashamed (outtake)
TTITLE14=My Cricket and Me (solo outtake)
TTITLE15=Both Ends of the Candle (outtake)
TTITLE16=Slowdown Old World (alternate version)
TTITLE17=Under the Double Edge (outtake)
TTITLE18=So Much To Do (Alternate version)
TTITLE19=My Cricket and Me (Band outtake)
TTITLE20=Save Your Tears (outtake)
TTITLE21=A song For You (alternate version)
TTITLE22=Whiskey River (alternate version)
EXTD=
EXTT0=
EXTT1=
EXTT2=
EXTT3=
EXTT4=
EXTT5=
EXTT6=
EXTT7=
EXTT8=
EXTT9=
EXTT10=
EXTT11=
EXTT12=
EXTT13=
EXTT14=
EXTT15=
EXTT16=
EXTT17=
EXTT18=
EXTT19=
EXTT20=
EXTT21=
EXTT22=
PLAYORDER=
